<?xml version="1.0" standalone="no"?>
<!DOCTYPE svg PUBLIC "-//W3C//DTD SVG 20010904//EN"
 "http://www.w3.org/TR/2001/REC-SVG-20010904/DTD/svg10.dtd">
<svg version="1.0" xmlns="http://www.w3.org/2000/svg"
 width="471.000000pt" height="471.000000pt" viewBox="0 0 471.000000 471.000000"
 preserveAspectRatio="xMidYMid meet">

<g transform="translate(0.000000,471.000000) scale(0.100000,-0.100000)"
fill="#000000" stroke="none">
<path d="M2090 4689 c-389 -33 -748 -126 -1030 -269 -135 -68 -213 -117 -335
-210 -10 -8 -64 -61 -120 -116 -135 -136 -242 -284 -303 -416 -9 -21 -20 -38
-24 -38 -5 0 -8 -7 -8 -15 0 -9 -13 -41 -29 -73 -42 -83 -118 -313 -146 -442
-32 -145 -37 -175 -69 -425 -14 -106 -18 -405 -7 -490 52 -393 252 -920 513
-1350 116 -192 340 -452 443 -517 22 -14 46 -33 54 -42 7 -9 18 -16 24 -16 5
0 24 -11 41 -24 28 -21 195 -105 213 -107 5 -1 17 -6 28 -12 11 -6 22 -12 25
-13 3 0 12 -3 20 -7 50 -19 174 -52 305 -79 90 -19 141 -22 520 -25 l420 -5
120 27 c229 51 446 130 686 251 424 212 716 454 930 769 63 94 83 127 106 178
10 20 21 37 25 37 5 0 8 9 8 19 0 11 4 22 9 25 5 4 22 39 37 79 15 39 31 77
35 82 13 19 82 261 98 345 6 30 14 69 17 85 4 17 9 171 11 343 5 345 1 384
-59 572 -44 138 -89 242 -188 442 -123 246 -219 409 -312 533 -105 139 -300
348 -387 414 -19 14 -49 39 -65 54 -17 16 -44 35 -61 44 -16 9 -46 29 -66 44
-20 16 -67 45 -105 65 -38 21 -80 44 -94 53 -14 9 -43 25 -65 35 -22 11 -52
25 -67 33 -16 8 -28 11 -28 7 0 -3 -6 -2 -13 4 -33 27 -302 105 -457 131 -171
30 -438 38 -650 20z m525 -694 c39 -9 75 -17 80 -19 23 -5 123 -40 155 -53 35
-15 43 -19 134 -67 138 -73 315 -237 413 -381 169 -250 243 -564 202 -862 -10
-80 -55 -260 -69 -278 -4 -5 -15 -32 -26 -60 -10 -27 -20 -52 -24 -55 -3 -3
-18 -31 -35 -62 -16 -32 -33 -58 -37 -58 -4 0 -8 -5 -8 -11 0 -33 -188 -231
-292 -307 l-57 -42 -30 50 c-34 55 -67 144 -77 209 -5 33 -15 47 -50 73 -37
28 -80 95 -68 107 2 2 20 -13 40 -33 20 -20 53 -40 76 -47 54 -14 147 -3 201
25 51 25 180 130 167 134 -5 2 -41 -1 -79 -7 -95 -15 -195 -14 -234 2 -41 18
-86 68 -161 180 -67 100 -91 122 -150 138 -22 6 -52 19 -66 28 -37 26 -51 30
-147 36 -72 5 -127 11 -163 20 -10 2 -55 28 -60 35 -9 12 -117 80 -127 80 -5
0 -25 17 -45 38 -45 48 -91 82 -142 105 -36 16 -76 48 -76 61 0 3 15 6 33 8
l32 3 -35 36 c-19 20 -45 41 -58 48 -12 7 -36 36 -53 66 -17 30 -34 55 -37 56
-34 4 -52 15 -99 61 -29 29 -56 60 -59 70 -3 10 -9 18 -13 18 -10 0 -53 -37
-52 -44 3 -27 -2 -36 -19 -36 -17 0 -24 -12 -22 -40 0 -3 16 -60 36 -127 l36
-122 -16 -62 c-11 -42 -14 -80 -9 -123 16 -144 59 -232 174 -358 49 -53 92
-107 96 -120 4 -12 29 -66 56 -119 47 -94 74 -196 64 -244 -2 -11 -4 -30 -4
-43 -1 -21 -4 -22 -51 -16 -44 6 -53 4 -91 -25 -47 -34 -85 -39 -179 -21 -47
9 -60 17 -109 70 -85 91 -96 105 -154 193 -93 140 -151 287 -183 455 -16 87
-22 324 -10 392 3 19 9 49 12 65 8 45 34 138 45 157 5 10 9 24 9 33 0 8 8 29
18 47 10 18 27 54 37 81 10 26 22 47 26 47 5 0 9 5 9 12 0 23 96 153 174 235
189 200 431 330 701 378 104 18 353 13 450 -10z m-546 -1803 c37 -161 47 -297
26 -332 -3 -4 -26 -2 -52 4 l-48 12 0 178 c0 169 1 179 20 186 32 12 43 2 54
-48z m252 45 c8 -7 30 -48 48 -93 41 -104 46 -111 147 -195 87 -72 97 -86 106
-149 6 -34 5 -35 -26 -35 -17 0 -56 -4 -87 -8 -52 -7 -61 -6 -113 22 -44 24
-69 31 -114 31 -31 0 -63 4 -71 9 -11 7 -14 52 -17 204 l-3 195 37 16 c45 18
72 19 93 3z m428 -232 c55 -30 73 -46 110 -101 41 -63 81 -163 81 -205 0 -23
-10 -24 -114 -3 -124 25 -120 20 -112 125 4 58 3 89 -3 89 -15 0 -51 75 -51
105 0 33 9 32 89 -10z m-1123 -635 c12 -7 27 -24 33 -38 15 -33 12 -158 -6
-199 -7 -18 -10 -33 -6 -33 5 0 -1 -7 -11 -15 -11 -8 -38 -15 -61 -15 -32 0
-47 6 -67 28 -22 23 -26 39 -32 113 -3 52 -1 99 5 117 18 51 88 72 145 42z
m208 -81 c4 -98 28 -187 77 -279 l24 -45 3 90 c1 50 -4 137 -11 195 -8 58 -14
106 -13 107 1 1 25 4 54 7 l53 5 -7 -137 c-6 -123 5 -315 22 -405 4 -20 1 -29
-13 -34 -10 -4 -30 -16 -45 -27 -15 -11 -31 -16 -35 -12 -4 3 -31 62 -60 129
l-54 122 3 -147 3 -148 -30 0 c-16 0 -47 3 -69 7 l-38 6 5 41 c3 23 11 73 18
111 15 89 6 347 -15 430 -8 33 -12 62 -9 65 4 4 124 17 131 14 1 -1 4 -43 6
-95z m643 68 c48 -23 85 -73 107 -143 18 -59 29 -356 15 -388 -12 -26 -72 -69
-119 -85 -19 -7 -75 -15 -124 -18 l-88 -6 6 39 c26 180 27 409 1 576 l-7 47
43 3 c66 6 119 -2 166 -25z m435 -8 c15 -11 38 -39 49 -62 20 -39 21 -51 15
-219 -9 -230 -32 -318 -87 -337 -15 -5 -53 -7 -83 -4 -53 5 -56 8 -89 57 -31
47 -34 59 -41 156 -3 58 -9 141 -12 185 -7 95 17 182 63 221 26 23 38 28 88
37 25 4 59 -8 97 -34z m402 13 c37 -22 74 -90 82 -154 l7 -48 -78 0 -77 0 6
31 c9 47 -2 81 -27 77 -24 -4 -70 -77 -88 -140 -16 -58 -15 -184 3 -233 l13
-40 54 2 c29 1 55 3 57 5 2 2 6 23 10 46 l7 42 -43 -15 c-24 -8 -45 -14 -47
-12 -2 2 -6 34 -10 71 l-6 66 112 0 c119 0 121 -1 102 -53 -19 -49 -28 -245
-15 -315 l6 -32 -55 0 c-30 0 -62 -2 -69 -5 -11 -5 -14 5 -14 42 l1 48 -75 -3
-76 -3 -16 33 c-82 172 -59 414 51 554 19 24 24 26 33 14 8 -12 9 -12 4 3 -4
13 2 21 25 31 38 16 82 12 123 -12z m433 -6 c38 -24 63 -79 63 -136 l0 -40
-69 0 -70 0 -3 48 c-3 44 -5 47 -33 49 -16 2 -39 -4 -49 -12 -17 -13 -18 -19
-8 -53 7 -24 25 -48 44 -63 62 -46 138 -122 138 -138 0 -10 5 -22 11 -28 7 -7
14 -56 17 -111 l4 -98 -88 -27 c-104 -32 -102 -32 -153 -11 -53 21 -81 77 -81
162 l0 62 39 0 c21 0 53 -3 71 -7 l33 -6 -6 -59 c-6 -64 1 -70 57 -48 23 8 26
15 26 54 0 25 -4 56 -10 71 -12 32 -99 114 -121 115 -25 0 -54 40 -82 114 -30
78 -27 93 32 142 66 55 170 64 238 20z m-2677 -15 c0 -77 82 -253 111 -236 21
13 127 194 129 220 0 3 0 12 0 21 0 14 9 16 50 12 28 -3 53 -8 56 -11 3 -3 -2
-45 -10 -94 -9 -48 -17 -128 -19 -176 -3 -62 -8 -92 -18 -99 -11 -8 -10 -9 4
-4 9 3 17 1 17 -4 0 -6 -6 -10 -12 -11 -10 0 -10 -2 0 -6 6 -2 12 -19 12 -36
0 -16 5 -59 11 -94 6 -35 9 -66 6 -69 -2 -3 -27 -7 -53 -9 l-49 -3 5 126 c3
70 9 133 13 140 5 6 4 12 -1 12 -6 0 -9 33 -7 78 2 59 0 72 -8 55 -5 -13 -14
-23 -19 -23 -5 0 -6 -4 -3 -10 3 -5 2 -10 -3 -10 -16 0 -43 -82 -32 -96 8 -8
0 -20 -30 -44 -22 -17 -43 -29 -47 -27 -5 3 -24 35 -43 71 -18 36 -35 64 -37
62 -2 -2 3 -81 12 -177 8 -95 15 -190 15 -210 l0 -37 -37 9 c-21 5 -49 12 -63
15 -14 3 -29 9 -33 13 -5 5 -3 46 4 91 23 163 -2 403 -56 533 -17 41 -20 38
50 55 77 19 85 17 85 -27z m535 -311 c4 -6 10 -8 15 -5 5 3 18 -7 30 -22 38
-49 23 -236 -23 -268 -36 -25 -85 -19 -117 15 -25 26 -29 40 -35 119 -8 100 3
137 45 158 30 15 76 17 85 3z"/>
<path d="M1547 1313 c-7 -14 -8 -120 -2 -157 5 -26 12 -36 24 -34 30 5 43 35
36 86 -13 106 -15 112 -35 112 -10 0 -21 -3 -23 -7z"/>
<path d="M2398 1208 c-8 -75 -9 -257 -2 -304 l6 -45 52 3 51 3 0 145 c-1 156
-10 191 -57 224 -35 25 -46 19 -50 -26z"/>
<path d="M2789 1233 c-19 -22 -19 -337 -1 -370 21 -38 59 -30 78 15 14 33 15
55 4 197 -7 99 -16 163 -23 167 -20 13 -44 9 -58 -9z"/>
<path d="M1553 973 c-14 -5 -18 -106 -7 -162 5 -24 12 -31 30 -31 27 0 28 4
25 100 -3 85 -15 107 -48 93z"/>
</g>
</svg>
